# xmcd
#
# Track frame offsets: 
#        150
#        16541
#        31946
#        48705
#        62669
#        73972
#        86653
#        97954
#        110817
#        125956
#
# Disc length: 1875 seconds
#
# Revision: 0
# Processed by: cddbd v1.5.2PL0 Copyright (c) Steve Scherf et al.
# Submitted via: ExactAudioCopy v0.99pb4
#
DISCID=8b07510a
DTITLE=Johnny Lee - Lookin' For Love
DYEAR=1980
DGENRE=Country
TTITLE0=Lookin' For Love
TTITLE1=Never Lay My Lovin' Down
TTITLE2=Dreams Die Hard
TTITLE3=Down and Dirty
TTITLE4=Fool For Love
TTITLE5=One In a Million
TTITLE6=Anni
TTITLE7=Do You Love as Good as You Look
TTITLE8=Too Damned Old
TTITLE9=Prisoner
EXTD=
EXTT0=
EXTT1=
EXTT2=
EXTT3=
EXTT4=
EXTT5=
EXTT6=
EXTT7=
EXTT8=
EXTT9=
PLAYORDER=
